<?xml version="1.0" encoding="iso-8859-1"?>
<!-- Generator: Adobe Illustrator 19.0.0, SVG Export Plug-In . SVG Version: 6.00 Build 0)  -->
<svg version="1.1" id="Capa_1" xmlns="http://www.w3.org/2000/svg" xmlns:xlink="http://www.w3.org/1999/xlink" x="0px" y="0px"
	 viewBox="0 0 511.969 511.969" style="enable-background:new 0 0 511.969 511.969;" xml:space="preserve">
<rect x="3.994" y="69.995" style="fill:#656D78;" width="503.97" height="375.98"/>
<path style="fill:#AAB2BD;" d="M427.973,357.964c0,8.796-7.203,15.999-15.999,15.999h-15.999l-79.995,16.015v-16.015h-8
	c-8.796,0-15.999-7.203-15.999-15.999V253.985c0-8.8,7.203-15.999,15.999-15.999h15.999l79.995-15.999v15.999h8
	c8.796,0,15.999,7.199,15.999,15.999V357.964z"/>
<g style="opacity:0.5;">
	<path style="fill:#FFFFFF;" d="M299.981,357.964V253.985c0-8.8,7.202-15.999,15.999-15.999h-8c-8.796,0-15.999,7.199-15.999,15.999
		v103.979c0,8.796,7.203,15.999,15.999,15.999h8C307.183,373.963,299.981,366.759,299.981,357.964z"/>
</g>
<g style="opacity:0.2;">
	<path d="M419.973,253.985v103.979c0,8.796-7.202,15.999-15.999,15.999h8c8.796,0,15.999-7.203,15.999-15.999V253.985
		c0-8.796-7.203-15.999-15.999-15.999h-8C412.771,237.986,419.973,245.189,419.973,253.985z"/>
</g>
<rect x="19.994" y="293.985" style="fill:#AAB2BD;" width="183.99" height="95.99"/>
<g>
	<rect x="227.984" y="413.975" style="fill:#5D9CEC;" width="263.98" height="15.999"/>
	<rect x="227.984" y="181.985" style="fill:#5D9CEC;" width="263.98" height="15.999"/>
	<rect x="227.984" y="149.995" style="fill:#5D9CEC;" width="263.98" height="15.999"/>
	<rect x="19.994" y="413.975" style="fill:#5D9CEC;" width="87.995" height="15.999"/>
</g>
<g>
	<rect x="123.994" y="413.975" style="fill:#AAB2BD;" width="15.999" height="15.999"/>
	<rect x="155.994" y="413.975" style="fill:#AAB2BD;" width="15.999" height="15.999"/>
	<rect x="187.984" y="413.975" style="fill:#AAB2BD;" width="15.999" height="15.999"/>
	<rect x="483.974" y="245.985" style="fill:#AAB2BD;" width="8" height="143.99"/>
</g>
<rect x="331.984" y="261.985" style="fill:#A0D468;" width="55.996" height="87.994"/>
<g>
	<rect x="315.984" y="261.985" style="fill:#CCD1D9;" width="15.999" height="87.994"/>
	<rect x="387.974" y="261.985" style="fill:#CCD1D9;" width="15.999" height="87.994"/>
</g>
<g style="opacity:0.5;">
	<polygon style="fill:#FFFFFF;" points="78.428,389.977 103.27,389.977 128.996,293.983 104.153,293.983 	"/>
</g>
<g style="opacity:0.5;">
	<polygon style="fill:#FFFFFF;" points="119.836,389.977 145.557,293.983 137.276,293.983 111.551,389.977 	"/>
</g>
<g>
	<rect x="19.994" y="125.995" style="fill:#AC92EC;" width="15.999" height="143.99"/>
	<rect x="99.994" y="125.995" style="fill:#AC92EC;" width="15.999" height="143.99"/>
	<rect x="179.984" y="125.995" style="fill:#AC92EC;" width="15.999" height="143.99"/>
</g>
<g>
	<polygon style="fill:#AAB2BD;" points="251.984,389.977 243.984,389.977 243.984,221.987 251.984,221.987 267.983,237.986 
		267.983,373.977 	"/>
	<path style="fill:#AAB2BD;" d="M467.97,253.985c0,4.418-3.578,8-7.999,8c-4.422,0-8-3.582-8-8c0-4.417,3.578-8,8-8
		C464.392,245.985,467.97,249.568,467.97,253.985z"/>
</g>
<g style="opacity:0.5;">
	<path style="fill:#FFFFFF;" d="M459.971,253.985c0-2.93,1.656-5.378,3.999-6.773c-1.195-0.711-2.515-1.227-3.999-1.227
		c-4.422,0-8,3.582-8,8s3.578,8,8,8c1.484,0,2.804-0.516,3.999-1.227C461.628,259.364,459.971,256.915,459.971,253.985z"/>
</g>
<circle style="fill:#AAB2BD;" cx="27.994" cy="93.995" r="8"/>
<g style="opacity:0.5;">
	<path style="fill:#FFFFFF;" d="M27.998,93.995c0-2.93,1.652-5.378,4-6.773c-1.195-0.711-2.512-1.227-4-1.227c-4.418,0-8,3.582-8,8
		s3.582,8,8,8c1.488,0,2.805-0.515,4-1.226C29.65,99.374,27.998,96.924,27.998,93.995z"/>
</g>
<circle style="fill:#AAB2BD;" cx="59.994" cy="93.995" r="8"/>
<g style="opacity:0.5;">
	<path style="fill:#FFFFFF;" d="M59.996,93.995c0-2.93,1.652-5.378,4-6.773c-1.195-0.711-2.512-1.227-4-1.227c-4.418,0-8,3.582-8,8
		s3.582,8,8,8c1.488,0,2.805-0.515,4-1.226C61.648,99.374,59.996,96.924,59.996,93.995z"/>
</g>
<circle style="fill:#AAB2BD;" cx="91.994" cy="93.995" r="8"/>
<g style="opacity:0.5;">
	<path style="fill:#FFFFFF;" d="M91.994,93.995c0-2.93,1.652-5.378,4-6.773c-1.195-0.711-2.512-1.227-4-1.227c-4.418,0-8,3.582-8,8
		s3.582,8,8,8c1.488,0,2.805-0.515,4-1.226C93.646,99.374,91.994,96.924,91.994,93.995z"/>
</g>
<circle style="fill:#AAB2BD;" cx="139.994" cy="133.995" r="8"/>
<g style="opacity:0.5;">
	<path style="fill:#FFFFFF;" d="M139.991,133.992c0-2.929,1.652-5.378,4-6.773c-1.195-0.711-2.512-1.227-4-1.227
		c-4.418,0-8,3.582-8,8s3.582,8,8,8c1.488,0,2.805-0.516,4-1.227C141.643,139.371,139.991,136.922,139.991,133.992z"/>
</g>
<circle style="fill:#AAB2BD;" cx="139.994" cy="165.985" r="8"/>
<g style="opacity:0.5;">
	<path style="fill:#FFFFFF;" d="M139.991,165.99c0-2.929,1.652-5.378,4-6.773c-1.195-0.711-2.512-1.227-4-1.227
		c-4.418,0-8,3.582-8,8s3.582,8,8,8c1.488,0,2.805-0.516,4-1.227C141.643,171.369,139.991,168.92,139.991,165.99z"/>
</g>
<circle style="fill:#AAB2BD;" cx="139.994" cy="197.985" r="8"/>
<g style="opacity:0.5;">
	<path style="fill:#FFFFFF;" d="M139.991,197.988c0-2.929,1.652-5.378,4-6.773c-1.195-0.711-2.512-1.227-4-1.227
		c-4.418,0-8,3.582-8,8s3.582,8,8,8c1.488,0,2.805-0.516,4-1.227C141.643,203.367,139.991,200.918,139.991,197.988z"/>
</g>
<g>
	<path style="fill:#AAB2BD;" d="M467.97,285.983c0,4.422-3.578,8-7.999,8c-4.422,0-8-3.578-8-8s3.578-8,8-8
		C464.392,277.983,467.97,281.561,467.97,285.983z"/>
	<path style="fill:#AAB2BD;" d="M467.97,317.981c0,4.422-3.578,8-7.999,8c-4.422,0-8-3.578-8-8s3.578-8,8-8
		C464.392,309.981,467.97,313.559,467.97,317.981z"/>
	<path style="fill:#AAB2BD;" d="M467.97,349.979c0,4.422-3.578,8-7.999,8c-4.422,0-8-3.578-8-8s3.578-8,8-8
		C464.392,341.979,467.97,345.557,467.97,349.979z"/>
	<path style="fill:#AAB2BD;" d="M467.97,381.977c0,4.422-3.578,8-7.999,8c-4.422,0-8-3.578-8-8s3.578-8,8-8
		C464.392,373.977,467.97,377.555,467.97,381.977z"/>
</g>
<g style="opacity:0.5;">
	<path style="fill:#FFFFFF;" d="M459.971,285.983c0-2.93,1.656-5.375,3.999-6.773c-1.195-0.711-2.515-1.227-3.999-1.227
		c-4.422,0-8,3.578-8,8s3.578,8,8,8c1.484,0,2.804-0.516,3.999-1.227C461.628,291.358,459.971,288.913,459.971,285.983z"/>
</g>
<g style="opacity:0.5;">
	<path style="fill:#FFFFFF;" d="M459.971,317.981c0-2.93,1.656-5.375,3.999-6.773c-1.195-0.711-2.515-1.227-3.999-1.227
		c-4.422,0-8,3.578-8,8s3.578,8,8,8c1.484,0,2.804-0.516,3.999-1.227C461.628,323.356,459.971,320.911,459.971,317.981z"/>
</g>
<g style="opacity:0.5;">
	<path style="fill:#FFFFFF;" d="M459.971,349.979c0-2.93,1.656-5.375,3.999-6.773c-1.195-0.711-2.515-1.227-3.999-1.227
		c-4.422,0-8,3.578-8,8s3.578,8,8,8c1.484,0,2.804-0.516,3.999-1.227C461.628,355.354,459.971,352.909,459.971,349.979z"/>
</g>
<g style="opacity:0.5;">
	<path style="fill:#FFFFFF;" d="M459.971,381.977c0-2.93,1.656-5.375,3.999-6.773c-1.195-0.711-2.515-1.227-3.999-1.227
		c-4.422,0-8,3.578-8,8s3.578,8,8,8c1.484,0,2.804-0.516,3.999-1.227C461.628,387.352,459.971,384.907,459.971,381.977z"/>
</g>
<rect x="51.994" y="173.985" style="fill:#FFCE54;" width="31.998" height="39.998"/>
<circle style="fill:#AAB2BD;" cx="67.994" cy="253.985" r="15.999"/>
<g style="opacity:0.5;">
	<path style="fill:#FFFFFF;" d="M59.996,253.985c0-7.445,5.109-13.647,11.999-15.433c-1.285-0.332-2.609-0.566-4-0.566
		c-8.835,0-15.999,7.164-15.999,15.999c0,8.836,7.164,15.999,15.999,15.999c1.391,0,2.715-0.234,4-0.563
		C65.105,267.632,59.996,261.43,59.996,253.985z"/>
</g>
<rect x="115.994" y="85.995" style="fill:#FFCE54;" width="79.995" height="15.999"/>
<polygon style="fill:#AC92EC;" points="507.968,101.994 475.97,133.992 243.984,133.992 211.986,101.994 211.986,69.996 
	507.968,69.996 "/>
<g style="opacity:0.3;">
	<polygon style="fill:#FFFFFF;" points="227.985,69.996 211.986,69.996 211.986,101.994 243.984,133.992 259.983,133.992 
		227.985,101.994 	"/>
</g>
<g style="opacity:0.2;">
	<polygon points="491.969,69.996 507.968,69.996 507.968,101.994 475.97,133.992 459.971,133.992 491.969,101.994 	"/>
</g>
<g style="opacity:0.2;">
	<rect x="19.994" y="141.995" width="8" height="111.99"/>
</g>
<g style="opacity:0.2;">
	<rect x="99.994" y="141.995" width="8" height="111.99"/>
</g>
<g style="opacity:0.2;">
	<rect x="179.984" y="141.995" width="8" height="111.99"/>
</g>
<g style="opacity:0.3;">
	<rect x="243.984" y="149.995" width="8" height="15.999"/>
</g>
<g style="opacity:0.3;">
	<rect x="243.984" y="181.985" width="8" height="15.999"/>
</g>
<g style="opacity:0.3;">
	<rect x="359.974" y="149.995" width="7.999" height="15.999"/>
</g>
<g style="opacity:0.3;">
	<rect x="359.974" y="181.985" width="7.999" height="15.999"/>
</g>
<g style="opacity:0.3;">
	<rect x="243.984" y="413.965" width="8" height="15.999"/>
</g>
<g style="opacity:0.3;">
	<rect x="359.974" y="413.965" width="7.999" height="15.999"/>
</g>
<g style="opacity:0.2;">
	<rect x="131.994" y="221.985" width="31.998" height="8"/>
</g>
<g style="opacity:0.2;">
	<rect x="131.994" y="245.985" width="31.998" height="8"/>
</g>
<g style="opacity:0.2;">
	<rect x="451.974" y="221.985" width="39.998" height="8"/>
</g>
<g style="opacity:0.2;">
	<rect x="75.994" y="125.995" width="7.999" height="23.999"/>
</g>
<g style="opacity:0.2;">
	<rect x="51.994" y="125.995" width="8" height="23.999"/>
</g>
<g style="opacity:0.5;">
	<rect x="51.994" y="173.985" style="fill:#FFFFFF;" width="8" height="39.998"/>
</g>
<g style="opacity:0.2;">
	<rect x="75.994" y="173.985" width="7.999" height="39.998"/>
</g>
<g style="opacity:0.5;">
	<rect x="243.984" y="221.985" style="fill:#FFFFFF;" width="8" height="167.99"/>
</g>
<g style="opacity:0.3;">
	<polygon points="259.983,381.977 267.983,373.977 267.983,237.986 259.983,229.986 	"/>
</g>
<g style="opacity:0.5;">
	<rect x="115.994" y="85.995" style="fill:#FFFFFF;" width="8" height="15.999"/>
</g>
<g style="opacity:0.2;">
	<rect x="187.984" y="85.995" width="7.999" height="15.999"/>
</g>
<g style="opacity:0.3;">
	<rect x="19.994" y="413.975" style="fill:#FFFFFF;" width="8" height="15.999"/>
</g>
<g style="opacity:0.5;">
	<rect x="123.994" y="413.975" style="fill:#FFFFFF;" width="7.999" height="15.999"/>
</g>
<g style="opacity:0.5;">
	<rect x="155.994" y="413.975" style="fill:#FFFFFF;" width="7.999" height="15.999"/>
</g>
<g style="opacity:0.5;">
	<rect x="187.984" y="413.975" style="fill:#FFFFFF;" width="7.999" height="15.999"/>
</g>
<g style="opacity:0.2;">
	<rect x="99.714" y="413.975" width="8" height="15.999"/>
</g>
<g style="opacity:0.2;">
	<rect x="331.984" y="261.985" width="7.999" height="87.994"/>
</g>
<g style="opacity:0.7;">
	<rect x="315.984" y="261.985" style="fill:#FFFFFF;" width="7.999" height="87.994"/>
</g>
<g style="opacity:0.2;">
	<rect x="395.974" y="261.985" width="7.999" height="87.994"/>
</g>
<g style="opacity:0.2;">
	<rect x="379.974" y="261.985" width="7.999" height="87.994"/>
</g>
<g style="opacity:0.2;">
	<rect x="3.994" y="69.995" style="fill:#FFFFFF;" width="8" height="375.98"/>
</g>
<g style="opacity:0.3;">
	<polygon points="507.968,445.973 499.968,445.973 499.968,109.994 507.968,101.994 	"/>
</g>
<g>
	<path style="fill:#3A3847;" d="M507.968,449.973H3.999c-2.21,0-3.999-1.789-3.999-4V69.996c0-2.21,1.789-4,3.999-4
		c2.211,0,4,1.789,4,4v371.977h499.97c2.211,0,4,1.789,4,4S510.179,449.973,507.968,449.973z"/>
	<path style="fill:#3A3847;" d="M211.986,105.994c-2.21,0-3.999-1.789-3.999-4V69.996c0-2.21,1.789-4,3.999-4c2.211,0,4,1.789,4,4
		v31.998C215.986,104.205,214.197,105.994,211.986,105.994z"/>
	<path style="fill:#3A3847;" d="M243.984,137.992c-1.023,0-2.046-0.391-2.827-1.172l-31.998-31.998
		c-1.563-1.563-1.563-4.093,0-5.656c1.562-1.563,4.093-1.563,5.655,0l31.998,31.998c1.563,1.563,1.563,4.093,0,5.656
		C246.031,137.602,245.007,137.992,243.984,137.992z"/>
	<path style="fill:#3A3847;" d="M507.968,105.994c-2.211,0-4-1.789-4-4V69.996c0-2.21,1.789-4,4-4s4,1.789,4,4v31.998
		C511.968,104.205,510.179,105.994,507.968,105.994z"/>
	<path style="fill:#3A3847;" d="M475.97,137.992c-1.023,0-2.047-0.391-2.828-1.172c-1.563-1.563-1.563-4.093,0-5.656l31.998-31.998
		c1.563-1.563,4.094-1.563,5.656,0c1.562,1.563,1.563,4.093,0,5.656l-31.998,31.998C478.017,137.602,476.994,137.992,475.97,137.992
		z"/>
	<path style="fill:#3A3847;" d="M475.97,137.992H243.984c-2.21,0-3.999-1.789-3.999-4c0-2.21,1.789-4,3.999-4H475.97
		c2.211,0,4,1.789,4,4S478.181,137.992,475.97,137.992z"/>
	<path style="fill:#3A3847;" d="M507.968,73.996H211.986c-2.21,0-3.999-1.789-3.999-4c0-2.21,1.789-4,3.999-4h295.982
		c2.211,0,4,1.789,4,4S510.179,73.996,507.968,73.996z"/>
	<path style="fill:#3A3847;" d="M195.987,73.996H3.999c-2.21,0-3.999-1.789-3.999-4c0-2.21,1.789-4,3.999-4h191.988
		c2.211,0,4,1.789,4,4S198.198,73.996,195.987,73.996z"/>
	<path style="fill:#3A3847;" d="M507.968,449.973c-2.211,0-4-1.789-4-4v-319.98c0-2.211,1.789-4,4-4s4,1.789,4,4v319.98
		C511.968,448.184,510.179,449.973,507.968,449.973z"/>
	<path style="fill:#3A3847;" d="M467.97,105.994H251.984c-2.211,0-4-1.789-4-4c0-2.21,1.789-4,4-4H467.97c2.211,0,4,1.789,4,4
		S470.181,105.994,467.97,105.994z"/>
	<path style="fill:#3A3847;" d="M491.969,69.996H475.97c-2.211,0-4-1.789-4-4c0-2.211,1.789-4,4-4h15.999
		c2.21,0,3.999,1.789,3.999,4C495.968,68.207,494.179,69.996,491.969,69.996z"/>
	<path style="fill:#3A3847;" d="M459.971,69.996h-23.999c-2.211,0-4-1.789-4-4c0-2.211,1.789-4,4-4h23.999
		c2.21,0,3.999,1.789,3.999,4C463.97,68.207,462.181,69.996,459.971,69.996z"/>
	<path style="fill:#3A3847;" d="M419.973,69.996h-23.998c-2.211,0-4-1.789-4-4c0-2.211,1.789-4,4-4h23.998c2.211,0,4,1.789,4,4
		C423.973,68.207,422.184,69.996,419.973,69.996z"/>
	<path style="fill:#3A3847;" d="M379.976,69.996h-31.998c-2.211,0-4-1.789-4-4c0-2.211,1.789-4,4-4h31.998c2.211,0,4,1.789,4,4
		C383.976,68.207,382.187,69.996,379.976,69.996z"/>
	<path style="fill:#3A3847;" d="M347.978,69.996h-15.999c-2.211,0-4-1.789-4-4c0-2.211,1.789-4,4-4h15.999c2.211,0,4,1.789,4,4
		C351.978,68.207,350.189,69.996,347.978,69.996z"/>
	<path style="fill:#3A3847;" d="M315.98,69.996h-8c-2.211,0-4-1.789-4-4c0-2.211,1.789-4,4-4h8c2.211,0,4,1.789,4,4
		C319.98,68.207,318.191,69.996,315.98,69.996z"/>
	<path style="fill:#3A3847;" d="M291.981,69.996h-31.998c-2.21,0-3.999-1.789-3.999-4c0-2.211,1.789-4,3.999-4h31.998
		c2.211,0,4,1.789,4,4C295.981,68.207,294.192,69.996,291.981,69.996z"/>
	<path style="fill:#3A3847;" d="M243.984,69.996h-15.999c-2.21,0-3.999-1.789-3.999-4c0-2.211,1.789-4,3.999-4h15.999
		c2.211,0,4,1.789,4,4C247.984,68.207,246.195,69.996,243.984,69.996z"/>
	<path style="fill:#3A3847;" d="M491.969,169.99H227.985c-2.21,0-3.999-1.789-3.999-4v-15.999c0-2.21,1.789-4,3.999-4h263.984
		c2.21,0,3.999,1.789,3.999,4v15.999C495.968,168.201,494.179,169.99,491.969,169.99z M231.985,161.991h255.984v-8H231.985V161.991z
		"/>
	<path style="fill:#3A3847;" d="M243.984,169.99c-2.21,0-3.999-1.789-3.999-4v-15.999c0-2.21,1.789-4,3.999-4c2.211,0,4,1.789,4,4
		v15.999C247.984,168.201,246.195,169.99,243.984,169.99z"/>
	<path style="fill:#3A3847;" d="M475.97,169.99c-2.211,0-4-1.789-4-4v-15.999c0-2.21,1.789-4,4-4s4,1.789,4,4v15.999
		C479.97,168.201,478.181,169.99,475.97,169.99z"/>
	<path style="fill:#3A3847;" d="M359.977,169.99c-2.211,0-4-1.789-4-4v-15.999c0-2.21,1.789-4,4-4s4,1.789,4,4v15.999
		C363.977,168.201,362.188,169.99,359.977,169.99z"/>
	<path style="fill:#3A3847;" d="M491.969,201.988H227.985c-2.21,0-3.999-1.789-3.999-4v-15.999c0-2.21,1.789-4,3.999-4h263.984
		c2.21,0,3.999,1.789,3.999,4v15.999C495.968,200.199,494.179,201.988,491.969,201.988z M231.985,193.989h255.984v-8H231.985
		V193.989z"/>
	<path style="fill:#3A3847;" d="M243.984,201.988c-2.21,0-3.999-1.789-3.999-4v-15.999c0-2.21,1.789-4,3.999-4c2.211,0,4,1.789,4,4
		v15.999C247.984,200.199,246.195,201.988,243.984,201.988z"/>
	<path style="fill:#3A3847;" d="M475.97,201.988c-2.211,0-4-1.789-4-4v-15.999c0-2.21,1.789-4,4-4s4,1.789,4,4v15.999
		C479.97,200.199,478.181,201.988,475.97,201.988z"/>
	<path style="fill:#3A3847;" d="M359.977,201.988c-2.211,0-4-1.789-4-4v-15.999c0-2.21,1.789-4,4-4s4,1.789,4,4v15.999
		C363.977,200.199,362.188,201.988,359.977,201.988z"/>
	<path style="fill:#3A3847;" d="M491.969,433.974H227.985c-2.21,0-3.999-1.789-3.999-4v-15.999c0-2.211,1.789-4,3.999-4h263.984
		c2.21,0,3.999,1.789,3.999,4v15.999C495.968,432.185,494.179,433.974,491.969,433.974z M231.985,425.975h255.984v-8H231.985
		V425.975z"/>
	<path style="fill:#3A3847;" d="M243.984,433.974c-2.21,0-3.999-1.789-3.999-4v-15.999c0-2.211,1.789-4,3.999-4c2.211,0,4,1.789,4,4
		v15.999C247.984,432.185,246.195,433.974,243.984,433.974z"/>
	<path style="fill:#3A3847;" d="M475.97,433.974c-2.211,0-4-1.789-4-4v-15.999c0-2.211,1.789-4,4-4s4,1.789,4,4v15.999
		C479.97,432.185,478.181,433.974,475.97,433.974z"/>
	<path style="fill:#3A3847;" d="M359.977,433.974c-2.211,0-4-1.789-4-4v-15.999c0-2.211,1.789-4,4-4s4,1.789,4,4v15.999
		C363.977,432.185,362.188,433.974,359.977,433.974z"/>
	<path style="fill:#3A3847;" d="M412.209,257.985c-2.203,0-4.031-1.789-4.031-4s1.75-4,3.953-4h0.078c2.219,0,4,1.789,4,4
		S414.427,257.985,412.209,257.985z"/>
	<path style="fill:#3A3847;" d="M308.214,257.985c-2.203,0-4.031-1.789-4.031-4s1.75-4,3.953-4h0.078c2.219,0,4,1.789,4,4
		S310.433,257.985,308.214,257.985z"/>
	<path style="fill:#3A3847;" d="M412.209,361.979c-2.203,0-4.031-1.789-4.031-4s1.75-4,3.953-4h0.078c2.219,0,4,1.789,4,4
		S414.427,361.979,412.209,361.979z"/>
	<path style="fill:#3A3847;" d="M308.214,361.979c-2.203,0-4.031-1.789-4.031-4s1.75-4,3.953-4h0.078c2.219,0,4,1.789,4,4
		S310.433,361.979,308.214,361.979z"/>
</g>
<path id="SVGCleanerId_0" style="fill:#3A3847;" d="M344.213,277.983c-2.203,0-4.031-1.788-4.031-3.999s1.75-4,3.953-4h0.078
	c2.219,0,4,1.789,4,4S346.431,277.983,344.213,277.983z"/>
<g>
	<path style="fill:#3A3847;" d="M360.212,277.983c-2.203,0-4.031-1.788-4.031-3.999s1.75-4,3.953-4h0.078c2.219,0,4,1.789,4,4
		S362.43,277.983,360.212,277.983z"/>
	<path style="fill:#3A3847;" d="M376.211,277.983c-2.203,0-4.031-1.788-4.031-3.999s1.75-4,3.953-4h0.078c2.219,0,4,1.789,4,4
		S378.429,277.983,376.211,277.983z"/>
</g>
<g>
	<path id="SVGCleanerId_0_1_" style="fill:#3A3847;" d="M344.213,277.983c-2.203,0-4.031-1.788-4.031-3.999s1.75-4,3.953-4h0.078
		c2.219,0,4,1.789,4,4S346.431,277.983,344.213,277.983z"/>
</g>
<path id="SVGCleanerId_1" style="fill:#3A3847;" d="M344.213,293.983c-2.203,0-4.031-1.789-4.031-4s1.75-4,3.953-4h0.078
	c2.219,0,4,1.789,4,4S346.431,293.983,344.213,293.983z"/>
<g>
	<path style="fill:#3A3847;" d="M360.212,293.983c-2.203,0-4.031-1.789-4.031-4s1.75-4,3.953-4h0.078c2.219,0,4,1.789,4,4
		S362.43,293.983,360.212,293.983z"/>
	<path style="fill:#3A3847;" d="M376.211,293.983c-2.203,0-4.031-1.789-4.031-4s1.75-4,3.953-4h0.078c2.219,0,4,1.789,4,4
		S378.429,293.983,376.211,293.983z"/>
</g>
<g>
	<path id="SVGCleanerId_1_1_" style="fill:#3A3847;" d="M344.213,293.983c-2.203,0-4.031-1.789-4.031-4s1.75-4,3.953-4h0.078
		c2.219,0,4,1.789,4,4S346.431,293.983,344.213,293.983z"/>
</g>
<path id="SVGCleanerId_2" style="fill:#3A3847;" d="M344.213,309.981c-2.203,0-4.031-1.788-4.031-3.999s1.75-4,3.953-4h0.078
	c2.219,0,4,1.789,4,4S346.431,309.981,344.213,309.981z"/>
<g>
	<path style="fill:#3A3847;" d="M360.212,309.981c-2.203,0-4.031-1.788-4.031-3.999s1.75-4,3.953-4h0.078c2.219,0,4,1.789,4,4
		S362.43,309.981,360.212,309.981z"/>
	<path style="fill:#3A3847;" d="M376.211,309.981c-2.203,0-4.031-1.788-4.031-3.999s1.75-4,3.953-4h0.078c2.219,0,4,1.789,4,4
		S378.429,309.981,376.211,309.981z"/>
</g>
<g>
	<path id="SVGCleanerId_2_1_" style="fill:#3A3847;" d="M344.213,309.981c-2.203,0-4.031-1.788-4.031-3.999s1.75-4,3.953-4h0.078
		c2.219,0,4,1.789,4,4S346.431,309.981,344.213,309.981z"/>
</g>
<path id="SVGCleanerId_3" style="fill:#3A3847;" d="M344.213,325.981c-2.203,0-4.031-1.789-4.031-4s1.75-4,3.953-4h0.078
	c2.219,0,4,1.789,4,4S346.431,325.981,344.213,325.981z"/>
<g>
	<path style="fill:#3A3847;" d="M360.212,325.981c-2.203,0-4.031-1.789-4.031-4s1.75-4,3.953-4h0.078c2.219,0,4,1.789,4,4
		S362.43,325.981,360.212,325.981z"/>
	<path style="fill:#3A3847;" d="M376.211,325.981c-2.203,0-4.031-1.789-4.031-4s1.75-4,3.953-4h0.078c2.219,0,4,1.789,4,4
		S378.429,325.981,376.211,325.981z"/>
</g>
<g>
	<path id="SVGCleanerId_3_1_" style="fill:#3A3847;" d="M344.213,325.981c-2.203,0-4.031-1.789-4.031-4s1.75-4,3.953-4h0.078
		c2.219,0,4,1.789,4,4S346.431,325.981,344.213,325.981z"/>
</g>
<path id="SVGCleanerId_4" style="fill:#3A3847;" d="M344.213,341.979c-2.203,0-4.031-1.788-4.031-3.999s1.75-4,3.953-4h0.078
	c2.219,0,4,1.789,4,4S346.431,341.979,344.213,341.979z"/>
<g>
	<path style="fill:#3A3847;" d="M360.212,341.979c-2.203,0-4.031-1.788-4.031-3.999s1.75-4,3.953-4h0.078c2.219,0,4,1.789,4,4
		S362.43,341.979,360.212,341.979z"/>
	<path style="fill:#3A3847;" d="M376.211,341.979c-2.203,0-4.031-1.788-4.031-3.999s1.75-4,3.953-4h0.078c2.219,0,4,1.789,4,4
		S378.429,341.979,376.211,341.979z"/>
</g>
<g>
	<path id="SVGCleanerId_4_1_" style="fill:#3A3847;" d="M344.213,341.979c-2.203,0-4.031-1.788-4.031-3.999s1.75-4,3.953-4h0.078
		c2.219,0,4,1.789,4,4S346.431,341.979,344.213,341.979z"/>
</g>
<g>
	<path style="fill:#3A3847;" d="M315.98,353.979c-2.211,0-4-1.789-4-4v-87.994c0-2.211,1.789-4,4-4s4,1.789,4,4v87.994
		C319.98,352.19,318.191,353.979,315.98,353.979z"/>
	<path style="fill:#3A3847;" d="M403.974,353.979c-2.211,0-4-1.789-4-4v-87.994c0-2.211,1.789-4,4-4s4,1.789,4,4v87.994
		C407.974,352.19,406.185,353.979,403.974,353.979z"/>
	<path style="fill:#3A3847;" d="M331.979,377.977H307.98c-11.03,0-19.998-8.968-19.998-19.998V253.985
		c0-11.026,8.968-19.999,19.998-19.999c2.211,0,4,1.789,4,4s-1.789,4-4,4c-6.616,0-11.999,5.382-11.999,11.999v103.994
		c0,6.616,5.383,11.999,11.999,11.999h23.999c2.21,0,3.999,1.789,3.999,3.999C335.978,376.188,334.189,377.977,331.979,377.977z"/>
	<path style="fill:#3A3847;" d="M411.974,377.977c-2.211,0-4-1.789-4-4c0-2.21,1.789-3.999,4-3.999
		c6.616,0,11.999-5.383,11.999-11.999V253.985c0-6.617-5.383-11.999-11.999-11.999h-23.999c-2.21,0-3.999-1.789-3.999-4
		s1.789-4,3.999-4h23.999c11.03,0,19.998,8.972,19.998,19.999v103.994C431.972,369.009,423.005,377.977,411.974,377.977z"/>
	<path style="fill:#3A3847;" d="M323.979,241.986c-1.875,0-3.546-1.313-3.921-3.215c-0.438-2.168,0.969-4.273,3.14-4.707
		l79.995-15.999c2.172-0.437,4.266,0.973,4.703,3.137c0.438,2.168-0.969,4.273-3.141,4.707l-79.995,15.999
		C324.495,241.963,324.229,241.986,323.979,241.986z"/>
	<path style="fill:#3A3847;" d="M403.974,241.986c-2.211,0-4-1.789-4-4v-15.999c0-2.211,1.789-4,4-4s4,1.789,4,4v15.999
		C407.974,240.197,406.185,241.986,403.974,241.986z"/>
	<path style="fill:#3A3847;" d="M315.98,393.977c-1.875,0-3.547-1.313-3.922-3.219c-0.438-2.164,0.969-4.273,3.141-4.703
		l79.995-15.999c2.188-0.438,4.272,0.969,4.702,3.141c0.438,2.163-0.969,4.272-3.14,4.702l-79.995,16
		C316.496,393.954,316.23,393.977,315.98,393.977z"/>
	<path style="fill:#3A3847;" d="M315.98,393.977c-2.211,0-4-1.789-4-4v-16c0-2.21,1.789-3.999,4-3.999s4,1.789,4,3.999v16
		C319.98,392.188,318.191,393.977,315.98,393.977z"/>
	<path style="fill:#3A3847;" d="M331.979,353.979c-2.211,0-4-1.789-4-4v-87.994c0-2.211,1.789-4,4-4c2.21,0,3.999,1.789,3.999,4
		v87.994C335.978,352.19,334.189,353.979,331.979,353.979z"/>
	<path style="fill:#3A3847;" d="M387.975,353.979c-2.21,0-3.999-1.789-3.999-4v-87.994c0-2.211,1.789-4,3.999-4c2.211,0,4,1.789,4,4
		v87.994C391.975,352.19,390.186,353.979,387.975,353.979z"/>
	<path style="fill:#3A3847;" d="M331.979,353.979H315.98c-2.211,0-4-1.789-4-4s1.789-4,4-4h15.999c2.21,0,3.999,1.789,3.999,4
		S334.189,353.979,331.979,353.979z"/>
	<path style="fill:#3A3847;" d="M403.974,353.979h-15.999c-2.21,0-3.999-1.789-3.999-4s1.789-4,3.999-4h15.999c2.211,0,4,1.789,4,4
		S406.185,353.979,403.974,353.979z"/>
	<path style="fill:#3A3847;" d="M403.974,265.985h-15.999c-2.21,0-3.999-1.789-3.999-4s1.789-4,3.999-4h15.999c2.211,0,4,1.789,4,4
		S406.185,265.985,403.974,265.985z"/>
	<path style="fill:#3A3847;" d="M331.979,265.985H315.98c-2.211,0-4-1.789-4-4s1.789-4,4-4h15.999c2.21,0,3.999,1.789,3.999,4
		S334.189,265.985,331.979,265.985z"/>
	<path style="fill:#3A3847;" d="M379.976,265.985h-39.998c-2.211,0-4-1.789-4-4s1.789-4,4-4h39.998c2.211,0,4,1.789,4,4
		S382.187,265.985,379.976,265.985z"/>
	<path style="fill:#3A3847;" d="M379.976,353.979h-39.998c-2.211,0-4-1.789-4-4s1.789-4,4-4h39.998c2.211,0,4,1.789,4,4
		S382.187,353.979,379.976,353.979z"/>
	<path style="fill:#3A3847;" d="M459.971,297.983c-6.617,0-11.999-5.383-11.999-12s5.382-11.999,11.999-11.999
		c6.616,0,11.999,5.382,11.999,11.999S466.588,297.983,459.971,297.983z M459.971,281.983c-2.203,0-4,1.797-4,4s1.797,4,4,4
		c2.202,0,3.999-1.797,3.999-4S462.173,281.983,459.971,281.983z"/>
	<path style="fill:#3A3847;" d="M459.971,265.985c-6.617,0-11.999-5.383-11.999-12s5.382-11.999,11.999-11.999
		c6.616,0,11.999,5.382,11.999,11.999C471.97,260.602,466.588,265.985,459.971,265.985z M459.971,249.985c-2.203,0-4,1.792-4,4
		c0,2.208,1.797,4,4,4c2.202,0,3.999-1.793,3.999-4S462.173,249.985,459.971,249.985z"/>
	<path style="fill:#3A3847;" d="M459.971,329.981c-6.617,0-11.999-5.383-11.999-12s5.382-11.999,11.999-11.999
		c6.616,0,11.999,5.382,11.999,11.999S466.588,329.981,459.971,329.981z M459.971,313.981c-2.203,0-4,1.797-4,4s1.797,4,4,4
		c2.202,0,3.999-1.797,3.999-4S462.173,313.981,459.971,313.981z"/>
	<path style="fill:#3A3847;" d="M459.971,361.979c-6.617,0-11.999-5.383-11.999-12c0-6.625,5.382-12.007,11.999-12.007
		c6.616,0,11.999,5.382,11.999,12.007C471.97,356.596,466.588,361.979,459.971,361.979z M459.971,345.971c-2.203,0-4,1.797-4,4.008
		c0,2.203,1.797,4,4,4c2.202,0,3.999-1.797,3.999-4C463.97,347.768,462.173,345.971,459.971,345.971z"/>
	<path style="fill:#3A3847;" d="M459.971,393.977c-6.617,0-11.999-5.383-11.999-12c0-6.625,5.382-12.015,11.999-12.015
		c6.616,0,11.999,5.39,11.999,12.015C471.97,388.594,466.588,393.977,459.971,393.977z M459.971,377.962c-2.203,0-4,1.805-4,4.016
		c0,2.203,1.797,4,4,4c2.202,0,3.999-1.797,3.999-4C463.97,379.766,462.173,377.962,459.971,377.962z"/>
	<path style="fill:#3A3847;" d="M483.969,393.977c-2.21,0-3.999-1.789-3.999-4V245.985c0-2.21,1.789-4,3.999-4c2.211,0,4,1.789,4,4
		v143.992C487.969,392.188,486.18,393.977,483.969,393.977z"/>
	<path style="fill:#3A3847;" d="M491.969,249.985h-8c-2.21,0-3.999-1.789-3.999-4c0-2.21,1.789-4,3.999-4h8
		c2.21,0,3.999,1.789,3.999,4C495.968,248.196,494.179,249.985,491.969,249.985z"/>
	<path style="fill:#3A3847;" d="M491.969,393.977h-8c-2.21,0-3.999-1.789-3.999-4s1.789-4,3.999-4h8c2.21,0,3.999,1.789,3.999,4
		S494.179,393.977,491.969,393.977z"/>
	<path style="fill:#3A3847;" d="M491.969,225.987h-39.998c-2.21,0-3.999-1.789-3.999-4s1.789-4,3.999-4h39.998
		c2.21,0,3.999,1.789,3.999,4S494.179,225.987,491.969,225.987z"/>
	<path style="fill:#3A3847;" d="M451.971,233.986c-2.21,0-3.999-1.789-3.999-4v-8c0-2.211,1.789-4,3.999-4c2.211,0,4,1.789,4,4v8
		C455.971,232.197,454.182,233.986,451.971,233.986z"/>
	<path style="fill:#3A3847;" d="M491.969,233.986c-2.211,0-4-1.789-4-4v-8c0-2.211,1.789-4,4-4c2.21,0,3.999,1.789,3.999,4v8
		C495.968,232.197,494.179,233.986,491.969,233.986z"/>
	<path style="fill:#3A3847;" d="M251.984,393.977h-8c-2.21,0-3.999-1.789-3.999-4v-167.99c0-2.211,1.789-4,3.999-4h8
		c1.063,0,2.078,0.421,2.828,1.171l15.998,15.999c0.75,0.75,1.172,1.766,1.172,2.828v135.991c0,1.063-0.422,2.078-1.172,2.828
		l-15.998,16C254.062,393.555,253.047,393.977,251.984,393.977z M247.984,385.977h2.344l13.655-13.655v-132.68l-13.655-13.655
		h-2.344V385.977z"/>
	<path style="fill:#3A3847;" d="M227.985,393.977c-2.21,0-3.999-1.789-3.999-4v-167.99c0-2.211,1.789-4,3.999-4c2.211,0,4,1.789,4,4
		v167.99C231.985,392.188,230.196,393.977,227.985,393.977z"/>
	<path style="fill:#3A3847;" d="M27.998,105.994c-6.617,0-11.999-5.382-11.999-12c0-6.617,5.382-11.999,11.999-11.999
		c6.616,0,11.999,5.382,11.999,11.999C39.997,100.612,34.614,105.994,27.998,105.994z M27.998,89.995c-2.207,0-4,1.792-4,4
		s1.793,4,4,4s4-1.793,4-4S30.205,89.995,27.998,89.995z"/>
	<path style="fill:#3A3847;" d="M59.996,105.994c-6.617,0-11.999-5.382-11.999-12c0-6.617,5.382-11.999,11.999-11.999
		c6.616,0,11.999,5.382,11.999,11.999C71.995,100.612,66.612,105.994,59.996,105.994z M59.996,89.995c-2.207,0-4,1.792-4,4
		s1.793,4,4,4s4-1.793,4-4S62.203,89.995,59.996,89.995z"/>
	<path style="fill:#3A3847;" d="M91.994,105.994c-6.617,0-11.999-5.382-11.999-12c0-6.617,5.382-11.999,11.999-11.999
		c6.616,0,11.999,5.382,11.999,11.999C103.993,100.612,98.61,105.994,91.994,105.994z M91.994,89.995c-2.207,0-4,1.792-4,4
		s1.793,4,4,4s4-1.793,4-4S94.201,89.995,91.994,89.995z"/>
	<path style="fill:#3A3847;" d="M139.991,145.992c-6.617,0-11.999-5.383-11.999-12s5.382-11.999,11.999-11.999
		c6.616,0,11.999,5.382,11.999,11.999S146.607,145.992,139.991,145.992z M139.991,129.993c-2.207,0-4,1.793-4,4s1.793,4,4,4
		s4-1.793,4-4S142.198,129.993,139.991,129.993z"/>
	<path style="fill:#3A3847;" d="M139.991,177.99c-6.617,0-11.999-5.383-11.999-12s5.382-11.999,11.999-11.999
		c6.616,0,11.999,5.382,11.999,11.999S146.607,177.99,139.991,177.99z M139.991,161.991c-2.207,0-4,1.793-4,4s1.793,4,4,4
		s4-1.793,4-4S142.198,161.991,139.991,161.991z"/>
	<path style="fill:#3A3847;" d="M139.991,209.988c-6.617,0-11.999-5.383-11.999-12s5.382-11.999,11.999-11.999
		c6.616,0,11.999,5.382,11.999,11.999S146.607,209.988,139.991,209.988z M139.991,193.989c-2.207,0-4,1.793-4,4s1.793,4,4,4
		s4-1.793,4-4S142.198,193.989,139.991,193.989z"/>
	<path style="fill:#3A3847;" d="M195.987,105.994h-79.995c-2.21,0-3.999-1.789-3.999-4V85.995c0-2.21,1.789-4,3.999-4h79.995
		c2.211,0,4,1.789,4,4v15.999C199.987,104.205,198.198,105.994,195.987,105.994z M119.992,97.995h71.996v-8h-71.996
		C119.992,89.995,119.992,97.995,119.992,97.995z"/>
	<path style="fill:#3A3847;" d="M35.997,273.984H19.998c-2.21,0-3.999-1.789-3.999-4V125.993c0-2.211,1.789-4,3.999-4h15.999
		c2.211,0,4,1.789,4,4v143.991C39.997,272.195,38.208,273.984,35.997,273.984z M23.998,265.985h8V129.993h-8V265.985z"/>
	<path style="fill:#3A3847;" d="M35.997,257.985H19.998c-2.21,0-3.999-1.789-3.999-4s1.789-4,3.999-4h15.999c2.211,0,4,1.789,4,4
		S38.208,257.985,35.997,257.985z"/>
	<path style="fill:#3A3847;" d="M35.997,145.992H19.998c-2.21,0-3.999-1.789-3.999-4s1.789-4,3.999-4h15.999c2.211,0,4,1.789,4,4
		S38.208,145.992,35.997,145.992z"/>
	<path style="fill:#3A3847;" d="M115.992,273.984H99.993c-2.21,0-3.999-1.789-3.999-4V125.993c0-2.211,1.789-4,3.999-4h15.999
		c2.211,0,4,1.789,4,4v143.991C119.992,272.195,118.203,273.984,115.992,273.984z M103.993,265.985h8V129.993h-8V265.985z"/>
	<path style="fill:#3A3847;" d="M115.992,257.985H99.993c-2.21,0-3.999-1.789-3.999-4s1.789-4,3.999-4h15.999c2.211,0,4,1.789,4,4
		S118.203,257.985,115.992,257.985z"/>
	<path style="fill:#3A3847;" d="M115.992,145.992H99.993c-2.21,0-3.999-1.789-3.999-4s1.789-4,3.999-4h15.999c2.211,0,4,1.789,4,4
		S118.203,145.992,115.992,145.992z"/>
	<path style="fill:#3A3847;" d="M195.987,273.984h-15.999c-2.21,0-3.999-1.789-3.999-4V125.993c0-2.211,1.789-4,3.999-4h15.999
		c2.211,0,4,1.789,4,4v143.991C199.987,272.195,198.198,273.984,195.987,273.984z M183.988,265.985h8V129.993h-8V265.985z"/>
	<path style="fill:#3A3847;" d="M195.987,257.985h-15.999c-2.21,0-3.999-1.789-3.999-4s1.789-4,3.999-4h15.999c2.211,0,4,1.789,4,4
		S198.198,257.985,195.987,257.985z"/>
	<path style="fill:#3A3847;" d="M195.987,145.992h-15.999c-2.21,0-3.999-1.789-3.999-4s1.789-4,3.999-4h15.999c2.211,0,4,1.789,4,4
		S198.198,145.992,195.987,145.992z"/>
	<path style="fill:#3A3847;" d="M67.995,273.984c-11.026,0-19.998-8.968-19.998-19.999c0-11.026,8.972-19.999,19.998-19.999
		c11.027,0,19.999,8.972,19.999,19.999C87.994,265.016,79.022,273.984,67.995,273.984z M67.995,241.986
		c-6.616,0-11.999,5.382-11.999,11.999c0,6.617,5.383,12,11.999,12c6.617,0,12-5.383,12-12S74.612,241.986,67.995,241.986z"/>
	<path style="fill:#3A3847;" d="M83.994,217.987H51.996c-2.21,0-3.999-1.789-3.999-4v-39.998c0-2.211,1.789-4,3.999-4h31.998
		c2.211,0,4,1.789,4,4v39.998C87.994,216.198,86.205,217.987,83.994,217.987z M55.996,209.988h23.999V177.99H55.996V209.988z"/>
	<path style="fill:#3A3847;" d="M59.996,177.99c-2.211,0-4-1.789-4-4v-4c0-2.211,1.789-4,4-4s4,1.789,4,4v4
		C63.996,176.201,62.207,177.99,59.996,177.99z"/>
	<path style="fill:#3A3847;" d="M59.996,221.987c-2.211,0-4-1.789-4-4v-4c0-2.21,1.789-4,4-4s4,1.789,4,4v4
		C63.996,220.198,62.207,221.987,59.996,221.987z"/>
	<path style="fill:#3A3847;" d="M75.995,177.99c-2.211,0-4-1.789-4-4v-4c0-2.211,1.789-4,4-4s4,1.789,4,4v4
		C79.995,176.201,78.206,177.99,75.995,177.99z"/>
	<path style="fill:#3A3847;" d="M75.995,221.987c-2.211,0-4-1.789-4-4v-4c0-2.21,1.789-4,4-4s4,1.789,4,4v4
		C79.995,220.198,78.206,221.987,75.995,221.987z"/>
	<path style="fill:#3A3847;" d="M51.996,153.991c-2.21,0-3.999-1.789-3.999-4v-23.999c0-2.211,1.789-4,3.999-4c2.211,0,4,1.789,4,4
		v23.999C55.996,152.202,54.207,153.991,51.996,153.991z"/>
	<path style="fill:#3A3847;" d="M59.996,129.993h-8c-2.21,0-3.999-1.789-3.999-4s1.789-4,3.999-4h8c2.211,0,4,1.789,4,4
		S62.207,129.993,59.996,129.993z"/>
	<path style="fill:#3A3847;" d="M59.996,153.991h-8c-2.21,0-3.999-1.789-3.999-4c0-2.21,1.789-4,3.999-4h8c2.211,0,4,1.789,4,4
		S62.207,153.991,59.996,153.991z"/>
	<path style="fill:#3A3847;" d="M75.995,153.991c-2.211,0-4-1.789-4-4v-23.999c0-2.211,1.789-4,4-4s4,1.789,4,4v23.999
		C79.995,152.202,78.206,153.991,75.995,153.991z"/>
	<path style="fill:#3A3847;" d="M83.994,129.993h-7.999c-2.211,0-4-1.789-4-4s1.789-4,4-4h7.999c2.211,0,4,1.789,4,4
		S86.205,129.993,83.994,129.993z"/>
	<path style="fill:#3A3847;" d="M83.994,153.991h-7.999c-2.211,0-4-1.789-4-4c0-2.21,1.789-4,4-4h7.999c2.211,0,4,1.789,4,4
		S86.205,153.991,83.994,153.991z"/>
	<path style="fill:#3A3847;" d="M163.989,209.988c-2.21,0-3.999-1.789-3.999-4v-79.995c0-2.211,1.789-4,3.999-4c2.211,0,4,1.789,4,4
		v79.995C167.989,208.199,166.2,209.988,163.989,209.988z"/>
	<path style="fill:#3A3847;" d="M131.991,233.986c-2.21,0-3.999-1.789-3.999-4v-8c0-2.211,1.789-4,3.999-4c2.211,0,4,1.789,4,4v8
		C135.991,232.197,134.202,233.986,131.991,233.986z"/>
	<path style="fill:#3A3847;" d="M163.989,225.987h-31.998c-2.21,0-3.999-1.789-3.999-4s1.789-4,3.999-4h31.998c2.211,0,4,1.789,4,4
		S166.2,225.987,163.989,225.987z"/>
	<path style="fill:#3A3847;" d="M163.989,233.986c-2.21,0-3.999-1.789-3.999-4v-8c0-2.211,1.789-4,3.999-4c2.211,0,4,1.789,4,4v8
		C167.989,232.197,166.2,233.986,163.989,233.986z"/>
	<path style="fill:#3A3847;" d="M131.991,257.985c-2.21,0-3.999-1.789-3.999-4v-8c0-2.21,1.789-4,3.999-4c2.211,0,4,1.789,4,4v8
		C135.991,256.196,134.202,257.985,131.991,257.985z"/>
	<path style="fill:#3A3847;" d="M163.989,249.985h-31.998c-2.21,0-3.999-1.789-3.999-4c0-2.21,1.789-4,3.999-4h31.998
		c2.211,0,4,1.789,4,4S166.2,249.985,163.989,249.985z"/>
	<path style="fill:#3A3847;" d="M163.989,257.985c-2.21,0-3.999-1.789-3.999-4v-8c0-2.21,1.789-4,3.999-4c2.211,0,4,1.789,4,4v8
		C167.989,256.196,166.2,257.985,163.989,257.985z"/>
	<path style="fill:#3A3847;" d="M163.989,273.984h-31.998c-2.21,0-3.999-1.789-3.999-4s1.789-3.999,3.999-3.999h31.998
		c2.211,0,4,1.788,4,3.999S166.2,273.984,163.989,273.984z"/>
	<path style="fill:#3A3847;" d="M203.987,393.977H19.998c-2.21,0-3.999-1.789-3.999-4v-95.994c0-2.211,1.789-4,3.999-4h183.989
		c2.211,0,4,1.789,4,4v95.994C207.987,392.188,206.198,393.977,203.987,393.977z M23.998,385.977h175.989v-87.994H23.998V385.977z"
		/>
	<path style="fill:#3A3847;" d="M43.997,377.977c-2.211,0-4-1.789-4-4v-63.996c0-2.21,1.789-3.999,4-3.999s4,1.789,4,3.999v63.996
		C47.997,376.188,46.208,377.977,43.997,377.977z"/>
	<path style="fill:#3A3847;" d="M179.988,377.977c-2.21,0-3.999-1.789-3.999-4v-63.996c0-2.21,1.789-3.999,3.999-3.999
		c2.211,0,4,1.789,4,3.999v63.996C183.988,376.188,182.199,377.977,179.988,377.977z"/>
	<path style="fill:#3A3847;" d="M19.998,433.974c-2.21,0-3.999-1.789-3.999-4v-15.999c0-2.211,1.789-4,3.999-4c2.211,0,4,1.789,4,4
		v15.999C23.998,432.185,22.209,433.974,19.998,433.974z"/>
	<path style="fill:#3A3847;" d="M107.993,417.975H19.998c-2.21,0-3.999-1.789-3.999-4s1.789-4,3.999-4h87.995c2.211,0,4,1.789,4,4
		S110.204,417.975,107.993,417.975z"/>
	<path style="fill:#3A3847;" d="M107.993,433.974c-2.211,0-4-1.789-4-4v-15.999c0-2.211,1.789-4,4-4s4,1.789,4,4v15.999
		C111.993,432.185,110.204,433.974,107.993,433.974z"/>
	<path style="fill:#3A3847;" d="M123.992,433.974c-2.211,0-4-1.789-4-4v-15.999c0-2.211,1.789-4,4-4s4,1.789,4,4v15.999
		C127.992,432.185,126.203,433.974,123.992,433.974z"/>
	<path style="fill:#3A3847;" d="M139.991,417.975h-15.999c-2.211,0-4-1.789-4-4s1.789-4,4-4h15.999c2.211,0,4,1.789,4,4
		S142.202,417.975,139.991,417.975z"/>
	<path style="fill:#3A3847;" d="M139.991,433.974c-2.211,0-4-1.789-4-4v-15.999c0-2.211,1.789-4,4-4s4,1.789,4,4v15.999
		C143.991,432.185,142.202,433.974,139.991,433.974z"/>
	<path style="fill:#3A3847;" d="M155.99,433.974c-2.211,0-4-1.789-4-4v-15.999c0-2.211,1.789-4,4-4s4,1.789,4,4v15.999
		C159.99,432.185,158.201,433.974,155.99,433.974z"/>
	<path style="fill:#3A3847;" d="M171.989,417.975H155.99c-2.211,0-4-1.789-4-4s1.789-4,4-4h15.999c2.211,0,4,1.789,4,4
		S174.2,417.975,171.989,417.975z"/>
	<path style="fill:#3A3847;" d="M171.989,433.974c-2.211,0-4-1.789-4-4v-15.999c0-2.211,1.789-4,4-4s4,1.789,4,4v15.999
		C175.989,432.185,174.2,433.974,171.989,433.974z"/>
	<path style="fill:#3A3847;" d="M187.988,433.974c-2.211,0-4-1.789-4-4v-15.999c0-2.211,1.789-4,4-4s4,1.789,4,4v15.999
		C191.988,432.185,190.199,433.974,187.988,433.974z"/>
	<path style="fill:#3A3847;" d="M203.987,417.975h-15.999c-2.211,0-4-1.789-4-4s1.789-4,4-4h15.999c2.211,0,4,1.789,4,4
		S206.198,417.975,203.987,417.975z"/>
	<path style="fill:#3A3847;" d="M203.987,433.974c-2.211,0-4-1.789-4-4v-15.999c0-2.211,1.789-4,4-4s4,1.789,4,4v15.999
		C207.987,432.185,206.198,433.974,203.987,433.974z"/>
	<path style="fill:#3A3847;" d="M91.994,433.974H35.997c-2.21,0-3.999-1.789-3.999-4s1.789-3.999,3.999-3.999h55.997
		c2.211,0,4,1.788,4,3.999S94.205,433.974,91.994,433.974z"/>
</g>
<g>
</g>
<g>
</g>
<g>
</g>
<g>
</g>
<g>
</g>
<g>
</g>
<g>
</g>
<g>
</g>
<g>
</g>
<g>
</g>
<g>
</g>
<g>
</g>
<g>
</g>
<g>
</g>
<g>
</g>
</svg>
